<svg xmlns="http://www.w3.org/2000/svg" xmlns:xlink="http://www.w3.org/1999/xlink" width="500" zoomAndPan="magnify" viewBox="0 0 375 374.999991" height="500" preserveAspectRatio="xMidYMid meet" version="1.0"><defs><clipPath id="403e98c55b"><path d="M 118 121 L 257.34375 121 L 257.34375 260 L 118 260 Z M 118 121 " clip-rule="nonzero"/></clipPath><clipPath id="165d7dcff0"><path d="M 117.871094 112.5 L 254.757812 112.5 L 254.757812 262.5 L 117.871094 262.5 Z M 117.871094 112.5 " clip-rule="nonzero"/></clipPath></defs><g clip-path="url(#403e98c55b)"><path fill="#f4fe61" d="M 157.9375 139.820312 C 158.234375 141.5 158.382812 143.4375 157.183594 144.664062 C 156.128906 145.75 154.398438 145.886719 152.835938 145.871094 C 148.710938 145.828125 144.582031 145.203125 140.625 144.023438 C 143.988281 147.484375 147.40625 151.015625 149.578125 155.257812 C 151.75 159.496094 152.527344 164.636719 150.449219 168.839844 C 144.765625 180.347656 118.125 181.765625 118.125 181.765625 C 118.125 181.765625 137.742188 187 146.261719 192.039062 C 147.476562 192.753906 148.761719 193.636719 149.113281 194.957031 C 150.808594 201.316406 132.945312 207.199219 128.554688 208.65625 C 135.660156 207.945312 142.8125 207.234375 149.960938 207.765625 C 154.335938 208.089844 158.910156 208.980469 162.300781 211.710938 C 170.964844 218.691406 162.066406 234.269531 158.542969 241.746094 C 163.363281 235.964844 168.183594 230.183594 173.003906 224.402344 C 173.792969 223.457031 174.710938 222.4375 175.972656 222.285156 C 177.136719 222.144531 178.296875 222.8125 179.023438 223.714844 C 182.878906 228.5 184.375 235.738281 185.746094 241.484375 C 187.089844 247.109375 189.414062 259.917969 189.414062 259.917969 C 189.414062 259.917969 195.238281 223.140625 199.664062 219.453125 C 200.976562 218.355469 202.65625 217.742188 204.34375 217.289062 C 213.039062 214.949219 222.859375 216.488281 230.472656 221.382812 C 227.121094 217.191406 220.027344 208.597656 220.496094 203.046875 C 220.703125 200.542969 223.007812 198.71875 225.339844 197.613281 C 234.957031 193.054688 257.316406 195.785156 257.316406 195.785156 C 257.316406 195.785156 239.882812 192.859375 233.367188 187.484375 C 232.539062 186.800781 231.746094 185.953125 231.632812 184.917969 C 231.46875 183.40625 232.78125 182.183594 234.007812 181.246094 C 240.277344 176.457031 247.234375 172.496094 254.640625 169.5 C 251.574219 169.84375 248.511719 170.191406 245.445312 170.539062 C 236.554688 171.542969 226.761719 172.347656 219.289062 167.4375 C 210.738281 161.8125 215.714844 154.15625 218.835938 147.082031 C 222.660156 138.417969 226.996094 129.976562 231.828125 121.808594 C 225.0625 130.25 217.355469 138.128906 208.0625 143.960938 C 206.925781 144.671875 205.503906 145.375 204.261719 144.800781 C 202.617188 144.046875 202.671875 141.816406 203.007812 140.117188 C 203.765625 136.324219 204.640625 132.550781 205.628906 128.808594 C 201.515625 134.480469 197.253906 140.289062 191.195312 144.023438 C 186.515625 146.910156 180.394531 148.390625 174.851562 146.910156 C 169.441406 145.460938 165.667969 140.226562 162.082031 136.304688 C 160.910156 135.019531 159.914062 133.597656 158.921875 132.179688 C 157.039062 129.488281 155.160156 126.796875 153.277344 124.105469 C 155.40625 129.066406 157.007812 134.554688 157.9375 139.820312 " fill-opacity="1" fill-rule="nonzero"/></g><g clip-path="url(#165d7dcff0)"><path fill="#f4dd1a" d="M 226.238281 226.855469 C 225.574219 225.234375 224.992188 223.320312 225.863281 221.800781 C 226.632812 220.460938 228.269531 219.910156 229.777344 219.554688 C 233.753906 218.621094 237.871094 218.269531 241.949219 218.523438 C 237.921875 215.835938 233.828125 213.089844 230.777344 209.335938 C 227.722656 205.582031 225.808594 200.597656 226.847656 195.875 C 229.703125 182.941406 254.625 174.804688 254.625 174.804688 C 254.625 174.804688 234.953125 174.582031 225.605469 171.53125 C 224.273438 171.097656 222.835938 170.515625 222.199219 169.269531 C 219.121094 163.269531 234.976562 153.117188 238.871094 150.609375 C 232.191406 153.007812 225.472656 155.421875 218.46875 156.582031 C 214.183594 157.289062 209.582031 157.480469 205.699219 155.535156 C 195.769531 150.5625 200.792969 132.777344 202.480469 124.417969 C 199.160156 131.378906 195.835938 138.335938 192.511719 145.296875 C 191.964844 146.441406 191.316406 147.679688 190.132812 148.136719 C 189.042969 148.554688 187.777344 148.15625 186.871094 147.421875 C 182.074219 143.515625 178.992188 136.585938 176.363281 131.128906 C 173.789062 125.785156 169.863281 118.507812 169.484375 112.5 C 169.976562 120.292969 170.46875 128.097656 170.410156 135.910156 C 170.367188 141.542969 171.398438 151.839844 167.980469 156.601562 C 166.960938 158.019531 165.484375 159.035156 163.964844 159.890625 C 156.125 164.308594 146.328125 165.085938 137.886719 161.964844 C 142.066406 165.390625 150.84375 172.355469 151.660156 178.054688 C 152.027344 180.625 150.226562 183.007812 148.230469 184.671875 C 140.011719 191.539062 128.25 191.421875 117.871094 194.09375 C 126.078125 196.042969 135.316406 192.90625 142.808594 196.769531 C 143.761719 197.257812 144.71875 197.929688 145.0625 198.941406 C 145.5625 200.425781 144.578125 201.964844 143.609375 203.199219 C 138.667969 209.507812 132.871094 215.144531 126.425781 219.914062 C 129.296875 218.839844 132.167969 217.765625 135.035156 216.6875 C 143.363281 213.570312 152.609375 210.4375 160.917969 213.609375 C 170.425781 217.242188 167.375 226.128906 165.980469 233.988281 C 164.269531 243.613281 162.011719 253.136719 159.21875 262.507812 C 163.8125 252.40625 169.441406 242.644531 177.058594 234.574219 C 177.992188 233.585938 179.199219 232.546875 180.527344 232.824219 C 182.28125 233.199219 182.734375 235.453125 182.796875 237.242188 C 182.929688 241.242188 182.945312 245.246094 182.847656 249.246094 C 185.515625 242.566406 188.292969 235.703125 193.273438 230.511719 C 197.125 226.496094 202.679688 223.558594 208.351562 223.730469 C 213.886719 223.90625 218.710938 228.28125 223.050781 231.378906 C 224.472656 232.394531 225.753906 233.589844 227.03125 234.78125 C 229.453125 237.042969 231.875 239.304688 234.300781 241.566406 C 231.121094 237.078125 228.332031 231.933594 226.238281 226.855469 " fill-opacity="1" fill-rule="nonzero"/></g><path fill="#f4b01a" d="M 212.542969 144.5 C 212.464844 144.753906 212.367188 145 212.253906 145.238281 C 213.292969 144.402344 214.460938 143.515625 215.792969 143.582031 C 217.125 143.648438 218.339844 145.285156 217.511719 146.328125 C 220.042969 143.703125 224.738281 143.574219 227.363281 146.105469 C 229.988281 148.640625 229.976562 153.402344 227.292969 155.871094 C 228.929688 154.363281 233.230469 155.84375 234.382812 157.460938 C 236.050781 159.804688 234.578125 163.738281 232.519531 165.296875 C 234.152344 164.542969 236.203125 165.421875 237.199219 166.914062 C 238.195312 168.410156 238.316406 170.332031 238.050781 172.109375 C 237.34375 176.824219 233.960938 181.046875 229.503906 182.769531 C 236.144531 181.832031 242.679688 188.675781 241.203125 195.316406 C 240.730469 197.433594 239.347656 199.328125 237.476562 200.425781 C 245.710938 200.746094 244.429688 211.910156 238.792969 214.996094 C 236.632812 216.179688 233.894531 216.25 231.671875 215.179688 C 232.128906 219.902344 229.0625 222.210938 224.558594 222.746094 C 220.355469 223.246094 215.078125 221.976562 211.457031 219.78125 C 216.535156 222.855469 218.246094 230.164062 215.496094 235.425781 C 212.75 240.683594 206.226562 243.472656 200.394531 242.363281 C 194.558594 241.253906 189.6875 236.609375 187.746094 231.007812 C 188.113281 232.46875 186.429688 233.617188 184.945312 233.894531 C 179.375 234.945312 173.542969 229.753906 173.945312 224.105469 C 172.09375 229.011719 166.425781 231.964844 161.234375 231.210938 C 156.042969 230.457031 151.632812 226.394531 149.878906 221.457031 C 148.125 216.515625 148.859375 210.890625 151.261719 206.234375 C 148.046875 207.519531 144.253906 204.597656 143.835938 201.167969 C 143.414062 197.734375 145.605469 194.40625 148.464844 192.460938 C 143.78125 192.769531 140.265625 187.109375 141.53125 182.835938 C 142.453125 179.71875 146.167969 178.015625 149.367188 178.613281 C 148.351562 176.851562 147.304688 174.976562 147.347656 172.941406 C 147.390625 170.914062 148.996094 168.765625 151.027344 168.929688 C 149.351562 161.378906 150.410156 152.84375 155.515625 147.027344 C 159.960938 141.964844 169.539062 138.617188 174.863281 144.109375 C 174.613281 143.234375 174.398438 142.226562 174.550781 141.316406 C 174.710938 140.34375 175.433594 139.390625 176.414062 139.296875 C 177.917969 139.152344 178.835938 140.875 179.292969 142.3125 C 180.984375 139.328125 182.847656 136.265625 185.757812 134.445312 C 188.664062 132.621094 192.917969 132.46875 195.214844 135.019531 C 196.847656 136.832031 197.113281 139.46875 197.125 141.90625 C 198.121094 139.320312 200.199219 137.121094 202.820312 136.214844 C 205.4375 135.304688 208.554688 135.804688 210.605469 137.664062 C 212.460938 139.34375 213.277344 142.132812 212.542969 144.5 " fill-opacity="1" fill-rule="nonzero"/><path fill="#f39300" d="M 226.011719 197.613281 C 227.453125 196.835938 228.546875 195.445312 228.960938 193.863281 C 230.257812 188.898438 225.519531 183.558594 220.488281 184.085938 C 224.367188 183.679688 228.824219 177.089844 226.984375 173.574219 C 226.296875 172.257812 224.953125 171.3125 223.480469 171.105469 C 223.269531 172.636719 222.582031 174.101562 221.53125 175.238281 C 222.738281 172.511719 222.496094 169.195312 220.910156 166.667969 C 221.980469 167.480469 222.855469 168.550781 223.433594 169.761719 C 224.535156 168.710938 225.8125 166.585938 224.859375 165.140625 C 224.035156 163.886719 220.832031 162.65625 219.558594 163.746094 C 221.648438 161.957031 221.789062 158.367188 219.878906 156.386719 C 218.941406 155.410156 217.484375 154.769531 216.128906 154.894531 C 215.445312 154.957031 212.949219 156.695312 212.8125 156.65625 C 214.054688 157.011719 214.933594 158.347656 214.761719 159.625 C 213.800781 157.742188 211.429688 156.703125 209.394531 157.273438 C 209.507812 156.789062 210.125 156.652344 210.621094 156.664062 C 211.113281 156.671875 211.703125 156.691406 211.996094 156.292969 C 213.644531 154.066406 209.464844 153.476562 208.511719 155.320312 C 208.605469 155.140625 208.683594 154.957031 208.75 154.769531 C 209.367188 153.003906 208.832031 150.882812 207.476562 149.5625 C 205.984375 148.105469 203.644531 147.644531 201.648438 148.257812 C 199.648438 148.871094 198.019531 150.472656 197.199219 152.390625 C 197.253906 150.554688 197.128906 148.558594 195.949219 147.148438 C 194.289062 145.164062 191.074219 145.160156 188.832031 146.457031 C 186.589844 147.75 185.101562 150.007812 183.746094 152.210938 C 183.4375 151.113281 182.796875 149.789062 181.660156 149.859375 C 180.914062 149.902344 180.34375 150.601562 180.199219 151.328125 C 180.058594 152.011719 180.191406 152.777344 180.359375 153.441406 C 176.863281 149.570312 171.425781 151.3125 167.496094 153.363281 C 165.273438 154.523438 163.449219 156.378906 162.097656 158.492188 C 161.738281 159.058594 161.414062 159.648438 161.125 160.253906 C 161.074219 160.171875 161.023438 160.089844 160.976562 160.007812 C 160.238281 158.800781 159.984375 157.414062 160.261719 156.023438 C 160.273438 155.960938 160.175781 155.9375 160.15625 156 C 159.738281 157.410156 159.566406 158.886719 159.789062 160.351562 C 159.871094 160.871094 160.074219 161.53125 160.386719 162.121094 C 160.21875 162.875 159.96875 164.964844 159.699219 165.144531 C 161.015625 164.265625 162.710938 163.980469 164.242188 164.382812 C 162.421875 165.085938 160.574219 165.804688 159.019531 166.980469 C 157.460938 168.152344 156.195312 169.855469 156.003906 171.796875 C 156.757812 170.695312 157.867188 169.84375 159.125 169.40625 C 156.882812 172.71875 158.578125 175.714844 160.1875 178.757812 C 155.808594 177.769531 152.78125 182.136719 153.558594 186.15625 C 153.875 187.773438 154.84375 189.253906 156.203125 190.1875 C 156.507812 188.105469 157.46875 186.125 158.921875 184.597656 C 156.996094 186.625 157.761719 192.492188 158.402344 194.84375 C 157.335938 194.503906 156.570312 193.394531 156.632812 192.277344 C 154.953125 193.722656 154.066406 197.132812 155.769531 198.824219 C 156.453125 199.503906 157.347656 199.925781 158.222656 200.335938 C 157.96875 199.394531 158.046875 198.363281 158.449219 197.472656 C 158.671875 198.757812 161.421875 204.339844 162.960938 204.382812 C 161.539062 204.339844 160.164062 203.511719 159.464844 202.273438 C 158.480469 204.933594 158.550781 208.367188 159.398438 211.070312 C 160.585938 214.839844 163.796875 218.019531 167.691406 218.734375 C 171.585938 219.441406 175.941406 217.375 177.46875 213.726562 C 176.277344 216.570312 180.058594 220.210938 182.335938 221.054688 C 183.921875 221.636719 185.15625 221.277344 186.726562 221.136719 C 188.875 220.941406 190.707031 221.03125 192.738281 220.078125 C 191.558594 221.03125 190.191406 221.761719 188.734375 222.207031 C 188.167969 222.378906 191.679688 225.46875 191.925781 225.648438 C 193.484375 226.808594 194.972656 227.773438 196.90625 228.214844 C 201.273438 229.207031 206.269531 227.28125 208.484375 223.394531 C 210.699219 219.507812 209.609375 213.949219 205.867188 211.492188 C 208.539062 213.246094 212.476562 214.347656 215.664062 214.085938 C 218.738281 213.832031 220.882812 212.71875 221.03125 209.414062 C 220.246094 209.820312 219.378906 210.066406 218.5 210.144531 C 221.167969 208.984375 223.097656 206.277344 223.320312 203.375 C 223.503906 205.195312 222.996094 207.078125 221.917969 208.558594 C 221.730469 208.8125 224.851562 209.042969 225.125 209.007812 C 225.996094 208.890625 226.679688 208.667969 227.402344 208.136719 C 228.664062 207.21875 229.535156 205.777344 229.960938 204.292969 C 230.863281 201.171875 229.5625 197.882812 226.011719 197.613281 " fill-opacity="1" fill-rule="nonzero"/><path fill="#f4dd1a" d="M 230.738281 166.296875 C 232.296875 165.574219 234.253906 166.414062 235.210938 167.84375 C 236.160156 169.269531 236.277344 171.109375 236.023438 172.804688 C 235.347656 177.3125 232.113281 181.347656 227.855469 182.996094 C 231.601562 182.464844 235.308594 184.546875 237.40625 187.574219 C 238.445312 189.070312 239.125 190.835938 239.222656 192.664062 C 239.292969 193.972656 238.527344 196.34375 237.097656 196.839844 C 236.277344 197.125 235.582031 195.84375 235.25 195.324219 C 234.988281 194.917969 234.683594 194.5625 234.339844 194.222656 C 234.289062 194.171875 234.175781 194.21875 234.21875 194.296875 C 234.601562 194.960938 234.976562 195.679688 235.164062 196.425781 C 235.207031 196.597656 235.261719 196.769531 235.296875 196.945312 C 235.890625 200.0625 235.414062 203.75 233.351562 206.25 C 233.667969 206.375 233.996094 206.117188 234.234375 205.875 C 235.550781 204.523438 236.359375 203.296875 236.691406 201.445312 C 236.78125 200.976562 236.820312 200.507812 236.820312 200.039062 C 237.125 200.105469 237.414062 200.191406 237.683594 200.296875 C 239.449219 199.1875 240.75 197.355469 241.203125 195.316406 C 242.679688 188.675781 236.144531 181.832031 229.503906 182.769531 C 233.960938 181.046875 237.34375 176.824219 238.050781 172.109375 C 238.316406 170.332031 238.195312 168.410156 237.199219 166.914062 C 236.203125 165.421875 234.152344 164.542969 232.519531 165.296875 C 234.578125 163.738281 236.050781 159.804688 234.382812 157.460938 C 233.230469 155.84375 228.929688 154.363281 227.292969 155.871094 C 229.976562 153.402344 229.988281 148.640625 227.363281 146.105469 C 224.738281 143.574219 220.042969 143.703125 217.511719 146.328125 C 218.339844 145.285156 217.125 143.648438 215.792969 143.582031 C 214.460938 143.515625 213.292969 144.402344 212.253906 145.238281 C 212.367188 145 212.464844 144.753906 212.542969 144.5 C 213.277344 142.132812 212.460938 139.34375 210.605469 137.664062 C 208.554688 135.804688 205.4375 135.304688 202.820312 136.214844 C 200.199219 137.121094 198.121094 139.320312 197.125 141.90625 C 197.113281 139.46875 196.847656 136.832031 195.214844 135.019531 C 192.917969 132.46875 188.664062 132.621094 185.757812 134.445312 C 182.847656 136.265625 180.984375 139.328125 179.292969 142.3125 C 178.835938 140.875 177.917969 139.152344 176.414062 139.296875 C 175.433594 139.390625 174.710938 140.34375 174.550781 141.316406 C 174.398438 142.226562 174.613281 143.234375 174.863281 144.109375 C 169.539062 138.617188 159.960938 141.964844 155.515625 147.027344 C 150.410156 152.84375 149.351562 161.378906 151.027344 168.929688 C 148.996094 168.765625 147.390625 170.914062 147.347656 172.941406 C 147.304688 174.976562 148.351562 176.851562 149.367188 178.613281 C 146.167969 178.015625 142.453125 179.71875 141.53125 182.835938 C 140.265625 187.109375 143.78125 192.769531 148.464844 192.460938 C 145.605469 194.40625 143.414062 197.734375 143.835938 201.167969 C 144.253906 204.597656 148.046875 207.519531 151.261719 206.234375 C 148.859375 210.890625 148.125 216.515625 149.878906 221.457031 C 151.632812 226.394531 156.042969 230.457031 161.234375 231.210938 C 166.386719 231.957031 172.007812 229.054688 173.898438 224.21875 C 171.597656 227.855469 166.933594 229.914062 162.613281 229.285156 C 157.652344 228.566406 153.4375 224.6875 151.761719 219.964844 C 150.457031 216.292969 150.167969 210.992188 152.449219 207.617188 C 153.144531 208.914062 154.363281 209.921875 155.769531 210.355469 C 153.433594 208.183594 152.28125 204.816406 152.792969 201.667969 C 152.28125 202.242188 151.949219 202.980469 151.863281 203.746094 C 151.816406 204.160156 151.839844 204.589844 151.679688 204.972656 C 150.84375 206.984375 148.21875 204.582031 147.46875 203.617188 C 145.769531 201.441406 145.605469 198.085938 146.960938 195.683594 C 148.175781 193.539062 150.273438 191.445312 152.746094 193.175781 C 150.917969 191.898438 149.675781 189.824219 149.40625 187.613281 C 149.304688 188.617188 149.429688 189.640625 149.777344 190.585938 C 149.816406 190.679688 149.847656 190.804688 149.773438 190.875 C 149.730469 190.917969 149.667969 190.925781 149.609375 190.929688 C 145.285156 191.296875 142.621094 186.976562 143.78125 183.054688 C 144.222656 181.570312 145.257812 180.449219 146.808594 180.15625 C 147.734375 179.976562 148.847656 179.894531 149.472656 180.601562 C 150.023438 181.230469 149.917969 182.175781 150.03125 183.003906 C 150.167969 184.03125 150.707031 184.996094 151.507812 185.65625 C 151 183.53125 151.046875 181.207031 152.019531 179.246094 C 152.773438 177.726562 154.023438 176.523438 155.246094 175.347656 C 154.875 175.4375 150.511719 176.871094 151.15625 177.761719 C 150.566406 176.945312 149.96875 176.117188 149.613281 175.175781 C 149.109375 173.847656 149.269531 172.449219 150.09375 171.285156 C 150.242188 171.074219 152.6875 169.007812 152.859375 169.769531 C 151.257812 162.554688 152.269531 154.398438 157.144531 148.839844 C 160.453125 145.070312 170.601562 139.929688 174.457031 145.648438 C 173.382812 146.511719 172.597656 147.730469 172.257812 149.066406 C 173.636719 147.199219 175.84375 145.964844 178.15625 145.769531 C 177.339844 145.386719 176.417969 145.230469 175.519531 145.324219 C 175.242188 145.355469 175.316406 141.625 177.121094 141.449219 C 178.558594 141.3125 179.429688 142.960938 179.871094 144.332031 C 181.484375 141.480469 183.265625 138.554688 186.046875 136.8125 C 188.828125 135.070312 192.890625 134.925781 195.085938 137.363281 C 196.644531 139.09375 196.898438 141.613281 196.914062 143.941406 C 197.863281 141.472656 199.851562 139.371094 202.351562 138.503906 C 204.855469 137.636719 207.832031 138.113281 209.792969 139.890625 C 211.566406 141.496094 212.34375 144.160156 211.644531 146.425781 C 211.570312 146.664062 211.480469 146.898438 211.371094 147.128906 C 212.359375 146.328125 213.476562 145.480469 214.75 145.542969 C 216.375 145.625 216.1875 147.773438 215.585938 148.808594 C 214.574219 148.730469 213.539062 149.113281 212.820312 149.824219 C 213.679688 149.734375 214.546875 149.640625 215.40625 149.75 C 216.265625 149.855469 217.125 150.179688 217.714844 150.808594 C 217.296875 150.210938 216.878906 149.609375 216.460938 149.011719 C 216.402344 148.929688 216.34375 148.839844 216.351562 148.742188 C 216.359375 148.652344 216.421875 148.578125 216.484375 148.507812 C 218.921875 145.847656 223.0625 145.300781 225.808594 147.957031 C 226.835938 148.953125 227.445312 150.316406 227.621094 151.726562 C 227.710938 152.445312 227.71875 153.234375 227.550781 153.945312 C 227.503906 154.132812 226.839844 155.605469 226.792969 155.554688 C 225.347656 154.109375 223.03125 153.605469 221.113281 154.328125 C 222.6875 153.734375 224.800781 155.496094 225.65625 156.65625 C 226.425781 157.691406 227.640625 161.96875 226.769531 163.03125 C 227.445312 162.203125 228.136719 161.3125 228.300781 160.257812 C 228.460938 159.25 228.136719 157.6875 229.324219 157.152344 C 230.191406 156.765625 231.535156 157.386719 232.230469 157.894531 C 233.097656 158.527344 233.394531 159.816406 233.441406 160.824219 C 233.527344 162.800781 232.664062 165.40625 230.738281 166.296875 " fill-opacity="1" fill-rule="nonzero"/><path fill="#f4dd1a" d="M 238.085938 200.472656 C 242.953125 202.816406 241.417969 211.222656 236.730469 213.792969 C 235.011719 214.734375 232.910156 214.9375 231.027344 214.386719 C 231.539062 213.625 231.804688 212.746094 231.882812 211.839844 C 231.96875 210.785156 231.429688 209.699219 231.503906 208.71875 C 231.425781 209.792969 231.265625 210.871094 230.835938 211.859375 C 229.699219 214.496094 226.457031 216.589844 223.65625 215.078125 C 223.539062 215.015625 223.417969 215.171875 223.53125 215.253906 C 225.453125 216.621094 228 216.941406 229.9375 215.527344 C 229.621094 218.996094 226.902344 220.75 223.128906 221.199219 C 219.109375 221.675781 214.070312 220.460938 210.605469 218.363281 C 211.636719 218.988281 212.519531 219.796875 213.25 220.726562 C 216.691406 222.324219 221.003906 223.167969 224.558594 222.746094 C 229.0625 222.210938 232.128906 219.902344 231.671875 215.179688 C 233.894531 216.25 236.632812 216.179688 238.792969 214.996094 C 244.285156 211.988281 245.640625 201.3125 238.085938 200.472656 " fill-opacity="1" fill-rule="nonzero"/><path fill="#f4dd1a" d="M 214.308594 222.363281 C 216.070312 225.6875 216.230469 229.941406 214.46875 233.3125 C 211.84375 238.339844 205.609375 241.007812 200.035156 239.945312 C 195.140625 239.015625 190.953125 235.480469 188.75 231.007812 C 190.617188 231.410156 192.523438 230.714844 193.972656 229.4375 C 194.078125 229.34375 193.976562 229.167969 193.84375 229.226562 C 190.6875 230.546875 185.839844 229.476562 184.246094 226.246094 C 184.1875 226.128906 184.015625 226.207031 184.0625 226.328125 C 184.683594 228.070312 185.867188 229.761719 187.558594 230.597656 C 187.035156 231.238281 186.121094 231.695312 185.273438 231.851562 C 179.949219 232.855469 174.371094 227.894531 174.757812 222.5 C 174.539062 223.078125 174.261719 223.628906 173.941406 224.152344 C 173.570312 229.78125 179.390625 234.945312 184.945312 233.894531 C 186.429688 233.617188 188.113281 232.46875 187.746094 231.007812 C 189.6875 236.609375 194.558594 241.253906 200.394531 242.363281 C 206.226562 243.472656 212.75 240.683594 215.496094 235.425781 C 217.640625 231.324219 217.070312 225.976562 214.308594 222.363281 " fill-opacity="1" fill-rule="nonzero"/><path fill="#f4b01a" d="M 195.503906 155.707031 C 195.511719 155.878906 195.503906 156.050781 195.488281 156.226562 C 195.945312 155.484375 196.480469 154.683594 197.320312 154.441406 C 198.160156 154.195312 199.261719 154.945312 198.976562 155.769531 C 199.980469 153.601562 202.859375 152.515625 205.027344 153.519531 C 207.199219 154.523438 208.214844 157.476562 207.085938 159.578125 C 207.773438 158.296875 210.757812 158.289062 211.816406 159.042969 C 213.355469 160.136719 213.289062 162.886719 212.351562 164.292969 C 213.199219 163.476562 214.660156 163.582031 215.597656 164.292969 C 216.535156 165.003906 217.023438 166.167969 217.242188 167.324219 C 217.820312 170.398438 216.632812 173.738281 214.246094 175.761719 C 218.15625 173.757812 223.679688 176.589844 224.191406 181.019531 C 224.355469 182.433594 223.90625 183.902344 222.984375 184.984375 C 228.152344 183.414062 229.761719 190.601562 226.9375 193.722656 C 225.851562 194.921875 224.171875 195.554688 222.566406 195.367188 C 223.863281 198.191406 222.464844 200.28125 219.789062 201.578125 C 217.292969 202.792969 213.753906 203.136719 211.039062 202.554688 C 214.84375 203.371094 217.476562 207.527344 216.910156 211.375 C 216.339844 215.21875 212.898438 218.347656 209.046875 218.914062 C 205.199219 219.480469 201.183594 217.652344 198.773438 214.597656 C 199.3125 215.425781 198.519531 216.496094 197.660156 216.988281 C 194.4375 218.835938 189.707031 216.875 188.742188 213.289062 C 188.652344 216.722656 185.777344 219.765625 182.398438 220.414062 C 179.019531 221.0625 175.417969 219.496094 173.269531 216.8125 C 171.121094 214.132812 170.363281 210.492188 170.847656 207.089844 C 169.132812 208.578125 166.15625 207.585938 165.15625 205.546875 C 164.160156 203.511719 164.796875 200.980469 166.148438 199.160156 C 163.316406 200.359375 159.921875 197.609375 159.785156 194.691406 C 159.683594 192.5625 161.617188 190.710938 163.726562 190.394531 C 162.71875 189.523438 161.667969 188.585938 161.257812 187.316406 C 160.84375 186.046875 161.378906 184.375 162.671875 184.042969 C 160.007812 179.726562 158.828125 174.214844 160.734375 169.515625 C 162.398438 165.425781 167.609375 161.296875 172.089844 163.550781 C 171.742188 163.066406 171.394531 162.488281 171.292969 161.890625 C 171.183594 161.253906 171.425781 160.511719 172.011719 160.242188 C 172.914062 159.828125 173.851562 160.699219 174.445312 161.492188 C 174.847656 159.28125 175.34375 156.984375 176.753906 155.230469 C 178.160156 153.476562 180.765625 152.46875 182.734375 153.554688 C 184.136719 154.328125 184.863281 155.902344 185.402344 157.410156 C 185.460938 155.597656 186.273438 153.785156 187.699219 152.664062 C 189.125 151.539062 191.164062 151.175781 192.835938 151.890625 C 194.34375 152.53125 195.449219 154.082031 195.503906 155.707031 " fill-opacity="1" fill-rule="nonzero"/><path fill="#f39300" d="M 223.835938 193.902344 C 223.578125 193.195312 223.050781 192.59375 222.398438 192.21875 C 222.523438 192.023438 222.632812 191.8125 222.714844 191.582031 C 223.171875 190.277344 222.878906 188.820312 221.769531 187.949219 C 221.554688 187.785156 221.296875 188.039062 221.378906 188.269531 C 222.128906 190.316406 221.230469 192.882812 219.488281 194.140625 C 219.378906 194.222656 219.488281 194.410156 219.609375 194.34375 C 220.449219 193.90625 221.367188 193.417969 222.019531 192.710938 C 222.445312 194.804688 222.152344 197.160156 220.304688 198.453125 C 220.183594 198.535156 220.308594 198.710938 220.433594 198.664062 C 222.375 197.921875 224.6875 196.230469 223.835938 193.902344 " fill-opacity="1" fill-rule="nonzero"/><path fill="#f39300" d="M 189.558594 158.242188 C 188.574219 156.855469 186.585938 156.347656 185.039062 156.976562 C 183.277344 157.691406 182.191406 159.410156 182.457031 161.320312 C 182.308594 160.269531 184.09375 159.097656 184.851562 158.734375 C 186.238281 158.070312 187.949219 157.910156 189.398438 158.464844 C 189.539062 158.515625 189.640625 158.351562 189.558594 158.242188 " fill-opacity="1" fill-rule="nonzero"/><path fill="#f39300" d="M 192.296875 210.695312 C 191.664062 211.871094 190.226562 212.421875 188.976562 212.738281 C 187.570312 213.09375 185.75 212.808594 184.726562 211.746094 C 184.671875 211.6875 184.546875 211.742188 184.597656 211.828125 C 185.574219 213.433594 186.980469 214.578125 188.960938 214.402344 C 191.019531 214.214844 191.972656 212.621094 192.488281 210.796875 C 192.519531 210.691406 192.363281 210.578125 192.296875 210.695312 " fill-opacity="1" fill-rule="nonzero"/><path fill="#f39300" d="M 204.976562 206.929688 C 204.941406 206.691406 204.566406 206.632812 204.496094 206.878906 C 204.320312 207.476562 204.226562 208.113281 203.882812 208.644531 C 203.519531 209.210938 202.96875 209.59375 202.425781 209.972656 C 201.164062 210.835938 199.722656 211.476562 198.1875 211.097656 C 198.042969 211.058594 197.972656 211.246094 198.105469 211.3125 C 199.28125 211.890625 200.640625 212.199219 201.875 211.878906 C 201.785156 212.089844 201.675781 212.308594 201.554688 212.519531 C 201.195312 213.148438 200.734375 213.726562 200.425781 213.949219 C 199.449219 214.652344 197.863281 214.855469 196.75 214.460938 C 197.375 214.679688 197.808594 215.515625 198.574219 215.738281 C 199.34375 215.957031 200.289062 215.875 200.980469 215.445312 C 202.09375 214.753906 202.414062 213.125 202.285156 211.742188 C 202.574219 211.632812 202.855469 211.484375 203.125 211.289062 C 204.3125 210.421875 205.183594 208.386719 204.976562 206.929688 " fill-opacity="1" fill-rule="nonzero"/><path fill="#f39300" d="M 174.355469 208.859375 C 174.503906 208.753906 174.648438 208.628906 174.777344 208.484375 C 174.222656 209.078125 171.945312 207.597656 171.601562 207.207031 C 170.683594 206.171875 170.242188 204.542969 170.609375 203.226562 C 170.636719 203.128906 170.503906 203.078125 170.464844 203.171875 C 169.726562 204.847656 169.171875 206.589844 170.351562 208.222656 C 171.289062 209.523438 173.09375 209.769531 174.355469 208.859375 " fill-opacity="1" fill-rule="nonzero"/><path fill="#f39300" d="M 217.660156 185.875 C 217.378906 184.542969 216.4375 182.566406 215.121094 181.8125 C 215.09375 181.695312 215.066406 181.574219 215.03125 181.453125 C 214.9375 181.117188 214.804688 180.777344 214.644531 180.457031 C 214.863281 180.203125 215.203125 179.886719 215.289062 179.742188 C 215.582031 179.269531 215.789062 178.75 215.90625 178.210938 C 216.101562 177.34375 216.179688 176.144531 215.578125 175.421875 C 215.25 175.03125 214.84375 174.710938 214.375 174.511719 C 213.21875 174.011719 211.886719 174.261719 210.683594 174.632812 C 213.683594 175.601562 214.585938 177.285156 214.484375 180.15625 C 213.710938 178.800781 212.394531 177.714844 210.824219 177.519531 C 210.679688 177.5 210.546875 177.699219 210.664062 177.816406 C 211.875 179 212.851562 180.269531 213.386719 181.90625 C 214.019531 183.824219 213.8125 186.054688 212.863281 187.835938 C 212.792969 187.96875 213.007812 188.078125 213.09375 187.960938 C 214.058594 186.578125 214.957031 185.203125 215.183594 183.648438 C 215.269531 183.742188 215.351562 183.835938 215.429688 183.9375 C 215.890625 184.535156 216.230469 185.195312 216.492188 185.902344 C 217.167969 187.707031 217.261719 189.390625 216.535156 191.207031 C 216.507812 191.285156 216.625 191.351562 216.664062 191.277344 C 217.519531 189.710938 218.035156 187.652344 217.660156 185.875 " fill-opacity="1" fill-rule="nonzero"/><path fill="#f39300" d="M 166.914062 175.792969 C 165.625 176.820312 164.496094 178.089844 164.285156 179.785156 C 164.207031 180.390625 164.253906 180.976562 164.40625 181.523438 C 163.4375 181.863281 162.703125 182.644531 162.382812 183.6875 C 161.902344 185.253906 162.664062 186.480469 163.664062 187.636719 C 163.765625 187.75 163.984375 187.632812 163.902344 187.488281 C 163.078125 186.011719 163.832031 183.988281 164.855469 182.5625 C 165.207031 183.140625 165.703125 183.636719 166.328125 184.011719 C 166.574219 184.160156 166.910156 183.933594 166.78125 183.644531 C 165.777344 181.332031 165.0625 177.945312 167.039062 175.945312 C 167.128906 175.859375 167.019531 175.710938 166.914062 175.792969 " fill-opacity="1" fill-rule="nonzero"/><path fill="#f39300" d="M 174.398438 163.09375 C 173.582031 162.511719 172.246094 162.683594 171.535156 163.328125 C 170.632812 164.144531 170.53125 165.5 171.042969 166.5625 C 171.457031 164.890625 172.996094 163.558594 174.710938 163.386719 C 174.621094 163.273438 174.515625 163.175781 174.398438 163.09375 " fill-opacity="1" fill-rule="nonzero"/><path fill="#f39300" d="M 213.273438 164.261719 C 212.691406 162.832031 210.859375 162.902344 209.550781 163.242188 C 209.40625 163.28125 209.378906 163.53125 209.558594 163.535156 C 212.214844 163.546875 212.746094 165.957031 212.113281 168.066406 C 212.253906 167.605469 212.984375 167.105469 213.191406 166.5625 C 213.433594 165.917969 213.542969 165.089844 213.328125 164.417969 C 213.308594 164.363281 213.292969 164.3125 213.273438 164.261719 " fill-opacity="1" fill-rule="nonzero"/><path fill="#f39300" d="M 212.164062 198.734375 C 211.988281 198.492188 211.847656 198.277344 211.832031 198.113281 C 212.042969 200.660156 210.691406 203.28125 208.300781 204.3125 C 208.164062 204.371094 208.226562 204.582031 208.371094 204.558594 C 209.648438 204.359375 211.46875 204.296875 212.382812 203.257812 C 213.511719 201.964844 213.074219 199.960938 212.164062 198.734375 " fill-opacity="1" fill-rule="nonzero"/><path fill="#f39300" d="M 223.894531 183.621094 C 223.335938 182.535156 222.390625 181.90625 221.179688 181.863281 C 220.9375 181.855469 220.832031 182.136719 221.015625 182.289062 C 222.324219 183.371094 223.804688 185.335938 223.367188 187.152344 C 223.339844 187.269531 223.484375 187.328125 223.542969 187.21875 C 224.15625 186.027344 224.550781 184.902344 223.894531 183.621094 " fill-opacity="1" fill-rule="nonzero"/><path fill="#f4dd1a" d="M 213.324219 186.460938 C 213.472656 185.9375 213.570312 185.398438 213.59375 184.875 C 213.679688 183.101562 213.152344 181.246094 212.292969 179.703125 C 212.25 179.621094 212.121094 179.675781 212.160156 179.761719 C 212.949219 181.445312 212.949219 183.125 212.476562 184.898438 C 212.398438 185.199219 212.304688 185.496094 212.203125 185.78125 C 211.613281 185.578125 210.96875 185.546875 210.367188 185.707031 C 210.132812 187.316406 209.179688 188.808594 207.816406 189.703125 C 208.519531 189.171875 208.875 188.296875 209.046875 187.4375 C 209.46875 185.296875 208.902344 182.980469 207.539062 181.277344 C 208.898438 181.609375 209.996094 182.816406 210.203125 184.199219 C 210.164062 183.921875 211.164062 182.816406 211.164062 182.207031 C 211.167969 181.484375 210.808594 180.824219 210.375 180.273438 C 209.453125 179.085938 207.867188 178.351562 206.363281 178.652344 C 206.253906 179.632812 205.902344 180.585938 205.34375 181.402344 C 205.726562 178.917969 205.355469 176.320312 204.285156 174.042969 C 205.414062 174.414062 206.191406 175.636719 206.050781 176.8125 C 207.453125 175.230469 207.558594 172.699219 205.703125 171.292969 C 205.070312 170.816406 204.085938 170.742188 203.515625 171.296875 C 204.148438 170.347656 204.191406 168.496094 203.15625 167.761719 C 202.441406 167.25 200.433594 167.257812 199.972656 168.121094 C 200.773438 166.621094 199.878906 164.125 198.101562 163.824219 C 196.261719 163.511719 193.984375 165.558594 193.738281 167.273438 C 195.304688 167.273438 196.496094 169.765625 197.328125 170.808594 C 196.34375 169.574219 194.847656 168.816406 193.300781 168.5 C 191.753906 168.183594 190.148438 168.28125 188.585938 168.53125 C 189.5625 167.769531 190.820312 167.382812 192.058594 167.460938 C 192.054688 166.890625 192.042969 166.207031 191.945312 165.542969 C 191.78125 164.433594 191.375 163.371094 190.375 162.941406 C 189.25 162.464844 187.878906 162.707031 186.921875 163.464844 C 185.960938 164.222656 185.410156 165.4375 185.371094 166.660156 C 185.011719 165.644531 184.519531 164.585938 183.574219 164.066406 C 182.207031 163.3125 180.726562 164.050781 179.707031 165.007812 C 179.429688 165.261719 177.875 168.351562 178.488281 168.203125 C 179.359375 167.992188 180.34375 168.46875 180.714844 169.285156 C 179.4375 169 178.019531 169.445312 177.132812 170.410156 C 177.375 169.714844 177.753906 169.066406 178.25 168.515625 C 177.3125 168.464844 176.363281 168.851562 175.726562 169.542969 C 175.097656 170.230469 174.792969 171.210938 174.925781 172.136719 C 176.613281 171.105469 178.832031 171.003906 180.601562 171.878906 C 178.742188 171.835938 176.738281 171.832031 175.210938 172.894531 C 174.066406 173.6875 173.367188 174.964844 172.800781 176.230469 C 172.347656 174.265625 172.941406 172.089844 174.328125 170.625 C 171.886719 170.253906 169.628906 172.6875 168.765625 174.808594 C 167.464844 178.011719 168.136719 181.390625 170.308594 183.964844 C 170.589844 182.789062 171.316406 181.730469 172.308594 181.050781 C 171.03125 182.59375 170.660156 184.839844 171.375 186.710938 C 171.074219 185.921875 169.777344 184.632812 169.027344 185.957031 C 168.457031 186.964844 170.109375 188.285156 170.78125 188.867188 C 169.359375 189.078125 168.054688 190.328125 168.125 191.757812 C 168.21875 193.722656 170.503906 195.574219 172.410156 194.769531 C 171.5 195.996094 171.070312 197.699219 171.742188 199.070312 C 172.285156 200.171875 173.011719 200.164062 174.097656 200.175781 C 174.273438 200.179688 174.46875 200.171875 174.585938 200.039062 C 174.679688 199.929688 174.679688 199.769531 174.679688 199.621094 C 174.652344 198.480469 174.628906 197.335938 174.605469 196.191406 C 174.59375 195.671875 174.640625 195.050781 175.089844 194.796875 C 174.566406 197.617188 176.394531 200.691406 179.128906 201.574219 C 177.972656 201.839844 176.722656 201.660156 175.683594 201.085938 C 175.457031 203.105469 175.921875 205.050781 177.203125 206.652344 C 178.648438 208.457031 181.078125 209.515625 183.351562 209.078125 C 185.625 208.640625 187.558594 206.589844 187.621094 204.28125 C 188.105469 206.078125 190.71875 208.183594 192.34375 206.355469 C 192.742188 205.90625 192.980469 205.335938 193.207031 204.78125 C 192.027344 204.496094 190.964844 203.75 190.300781 202.738281 C 192.109375 204.175781 194.761719 204.472656 196.847656 203.464844 C 196.335938 204.089844 195.554688 204.488281 194.746094 204.53125 C 194.460938 204.546875 194.09375 204.578125 194.011719 204.851562 C 193.957031 205.042969 194.09375 205.234375 194.226562 205.386719 C 195.878906 207.238281 198.820312 208.429688 201.292969 208.066406 C 203.886719 207.6875 206.199219 205.578125 206.585938 202.992188 C 206.835938 201.28125 206.105469 199.632812 205.320312 198.167969 C 203.964844 199.875 201.773438 200.640625 199.703125 201.324219 C 202.765625 199.433594 204.613281 195.734375 204.277344 192.152344 C 205.046875 193.617188 205.074219 195.449219 204.34375 196.933594 C 204.363281 196.894531 208.355469 196.527344 208.992188 196.144531 C 210.449219 195.273438 211.132812 193.824219 210.390625 192.214844 C 211.472656 192.339844 212.605469 191.914062 213.335938 191.109375 C 214.523438 189.796875 214.597656 187.683594 213.324219 186.460938 " fill-opacity="1" fill-rule="nonzero"/><path fill="#f4fe57" d="M 202.066406 187.847656 C 202.195312 187.953125 202.304688 188.082031 202.386719 188.242188 C 202.527344 188.511719 202.558594 188.828125 202.570312 189.136719 C 202.613281 190.46875 202.0625 191.792969 201.238281 192.820312 C 200.980469 193.144531 198.183594 195.085938 198.097656 193.90625 C 198.039062 193.117188 197.980469 192.328125 197.921875 191.542969 C 197.820312 193.421875 196.554688 195.1875 194.804688 195.890625 C 195.933594 195.863281 197.046875 195.40625 197.863281 194.632812 C 200.464844 197.855469 194.957031 201.171875 193.429688 198.195312 C 193.226562 198.847656 192.441406 199.257812 191.789062 199.050781 C 191.136719 198.84375 190.734375 198.054688 190.949219 197.40625 C 190.484375 198.167969 189.980469 198.929688 189.269531 199.46875 C 187.015625 201.175781 184.335938 199.105469 185.199219 196.464844 C 185.078125 196.839844 187.558594 195.796875 187.804688 195.632812 C 186.523438 195.550781 185.207031 195.363281 184.105469 194.699219 C 183.003906 194.039062 182.167969 192.804688 182.316406 191.53125 C 182.148438 192.414062 182.238281 193.347656 182.578125 194.183594 C 182.816406 194.773438 183.324219 195.386719 183.953125 195.285156 C 183.078125 196.511719 181.78125 197.203125 180.363281 196.390625 C 179.351562 195.808594 178.785156 194.609375 178.804688 193.445312 C 178.824219 192.28125 179.367188 191.164062 180.140625 190.292969 C 179.601562 190.90625 178.464844 190.433594 178.25 189.648438 C 177.691406 187.589844 180.15625 186.863281 181.667969 186.824219 C 181.558594 187.574219 181.671875 188.355469 181.984375 189.046875 C 182.121094 187.3125 182.847656 185.628906 184.019531 184.335938 C 183.035156 184.527344 182.128906 185.089844 181.519531 185.882812 C 180.640625 184.761719 179.882812 183.53125 180.898438 182.226562 C 181.402344 181.582031 182.128906 181.152344 182.835938 180.738281 C 182.050781 181.519531 181.816406 182.800781 182.265625 183.808594 C 182.746094 182.171875 184.324219 180.921875 186.027344 180.824219 C 185.902344 180.355469 185.390625 180.070312 184.902344 180.050781 C 184.414062 180.03125 183.941406 180.21875 183.492188 180.402344 C 183.199219 179.605469 183.5625 178.621094 184.304688 178.203125 C 185.050781 177.789062 186.082031 177.992188 186.609375 178.65625 C 186.097656 178.011719 188.539062 175.910156 188.980469 175.644531 C 190.15625 174.9375 191.578125 174.691406 192.933594 174.84375 C 196.324219 175.222656 198.988281 177.894531 197.609375 181.378906 C 197.109375 180.421875 195.929688 179.871094 194.875 180.097656 C 197.054688 181.601562 198.117188 184.554688 197.390625 187.101562 C 198.621094 186.058594 199.097656 184.21875 198.523438 182.710938 C 198.589844 182.886719 201.15625 182.652344 201.480469 184.1875 C 201.710938 185.304688 200.609375 186.496094 200.042969 187.355469 C 200.703125 187.378906 201.523438 187.398438 202.066406 187.847656 " fill-opacity="1" fill-rule="nonzero"/><path fill="#f4dd1a" d="M 205.304688 160.785156 C 204.359375 158.1875 201.34375 159.125 200.023438 160.722656 C 202.296875 160.875 204.300781 162.855469 204.472656 165.121094 C 205.257812 164.117188 205.757812 162.019531 205.304688 160.785156 " fill-opacity="1" fill-rule="nonzero"/><path fill="#f4dd1a" d="M 217.058594 169.386719 C 216.96875 167.917969 216.085938 166.933594 215.203125 165.839844 C 215.148438 165.765625 215.011719 165.839844 215.0625 165.925781 C 215.695312 166.992188 215.644531 168.355469 215.65625 169.5625 C 215.664062 170.605469 215.476562 171.648438 215.527344 172.695312 C 215.53125 172.824219 215.691406 172.855469 215.777344 172.792969 C 216.871094 171.996094 217.132812 170.65625 217.058594 169.386719 " fill-opacity="1" fill-rule="nonzero"/><path fill="#f4dd1a" d="M 168.28125 197.855469 C 167.460938 197.503906 166.53125 196.4375 166.066406 195.703125 C 165.390625 194.632812 164.925781 193.5 165.492188 192.277344 C 165.574219 192.097656 165.28125 191.9375 165.179688 192.113281 C 164.417969 193.417969 163.792969 195.046875 164.554688 196.488281 C 164.90625 197.144531 165.410156 197.691406 166.070312 198.039062 C 166.816406 198.433594 167.4375 198.335938 168.234375 198.289062 C 168.476562 198.277344 168.46875 197.9375 168.28125 197.855469 " fill-opacity="1" fill-rule="nonzero"/><path fill="#f4dd1a" d="M 174.535156 163.621094 C 172.410156 163.957031 170.132812 165.203125 170.308594 167.660156 C 169.78125 167.878906 169.285156 168.210938 168.867188 168.589844 C 167.804688 169.550781 167.367188 170.90625 166.871094 172.203125 C 166.8125 172.355469 167.035156 172.429688 167.105469 172.289062 C 168.214844 170.109375 170.917969 169.632812 172.570312 168.03125 C 172.726562 167.878906 172.726562 167.582031 172.484375 167.503906 C 172.246094 167.429688 172.011719 167.386719 171.769531 167.378906 C 172.332031 165.882812 172.898438 164.230469 174.550781 163.679688 C 174.585938 163.667969 174.566406 163.613281 174.535156 163.621094 " fill-opacity="1" fill-rule="nonzero"/><path fill="#f4dd1a" d="M 215.132812 195.089844 C 214.777344 196.0625 214.1875 196.988281 213.257812 197.492188 C 212.65625 197.820312 212.011719 198.042969 211.371094 198.273438 C 211.132812 197.761719 210.734375 197.367188 210.132812 197.273438 C 209.910156 197.234375 209.777344 197.476562 209.847656 197.664062 C 210.027344 198.175781 210.226562 198.628906 210.214844 199.1875 C 210.199219 199.710938 210.074219 200.222656 209.96875 200.734375 C 209.703125 202 209.007812 203.332031 208.050781 204.230469 C 207.984375 204.296875 208.046875 204.429688 208.144531 204.382812 C 209.664062 203.613281 211.054688 202.417969 211.53125 200.703125 C 211.609375 200.429688 211.652344 200.109375 211.660156 199.78125 C 213.546875 199.148438 214.796875 196.949219 215.25 195.136719 C 215.269531 195.058594 215.160156 195.011719 215.132812 195.089844 " fill-opacity="1" fill-rule="nonzero"/><path fill="#f4dd1a" d="M 221.167969 182.742188 C 221.136719 182.710938 221.082031 182.753906 221.113281 182.789062 C 222.429688 184.269531 222.15625 186.308594 220.996094 187.734375 C 220.585938 187.070312 220.050781 186.515625 219.527344 185.894531 C 219.445312 185.792969 219.285156 185.890625 219.332031 186.011719 C 219.703125 186.917969 219.964844 187.867188 220.078125 188.828125 C 220.066406 188.925781 220.078125 189.019531 220.105469 189.109375 C 220.164062 189.765625 220.148438 190.429688 220.046875 191.089844 C 219.941406 191.785156 219.714844 192.503906 219.40625 193.140625 C 219.101562 193.769531 218.542969 194.222656 218.226562 194.832031 C 218.1875 194.90625 218.269531 194.976562 218.339844 194.96875 C 219.933594 194.820312 221.191406 192.683594 221.53125 191.308594 C 221.714844 190.578125 221.738281 189.8125 221.566406 189.082031 C 223.347656 187.226562 222.972656 184.582031 221.167969 182.742188 " fill-opacity="1" fill-rule="nonzero"/><path fill="#f4dd1a" d="M 212.878906 209.765625 C 212.863281 209.683594 212.746094 209.683594 212.734375 209.769531 C 212.523438 211.132812 211.707031 211.929688 210.707031 212.792969 C 210.269531 213.164062 209.789062 213.445312 209.28125 213.703125 C 208.71875 213.992188 207.96875 214.417969 207.359375 214.546875 C 207.128906 214.597656 207.105469 214.980469 207.367188 214.984375 C 208.207031 214.984375 208.859375 215.121094 209.710938 214.882812 C 210.480469 214.664062 211.234375 214.246094 211.820312 213.703125 C 212.832031 212.765625 213.148438 211.074219 212.878906 209.765625 " fill-opacity="1" fill-rule="nonzero"/><path fill="#f4dd1a" d="M 191.917969 210.574219 C 189.625 211.183594 186.882812 212.574219 184.648438 210.917969 C 184.5 210.808594 184.3125 211.011719 184.429688 211.152344 C 185.410156 212.375 186.621094 213.199219 188.25 213.148438 C 189.808594 213.105469 191.476562 212.292969 192.09375 210.792969 C 192.136719 210.6875 192.035156 210.542969 191.917969 210.574219 " fill-opacity="1" fill-rule="nonzero"/><path fill="#f4dd1a" d="M 176.078125 210.589844 C 175.929688 209.976562 175.851562 209.351562 175.726562 208.730469 C 175.59375 208.097656 175.601562 207.542969 175.097656 207.085938 C 175.042969 207.039062 174.964844 207.046875 174.902344 207.066406 C 174.074219 207.351562 174.066406 208.339844 174.234375 209.058594 C 174.425781 209.898438 174.988281 210.5 175.777344 210.832031 C 175.925781 210.894531 176.121094 210.753906 176.078125 210.589844 " fill-opacity="1" fill-rule="nonzero"/><path fill="#f39300" d="M 210.054688 142.546875 C 209.117188 141.007812 207.46875 140.136719 205.765625 139.710938 C 205.6875 139.695312 205.644531 139.796875 205.71875 139.828125 C 207.265625 140.453125 208.296875 141.726562 208.816406 143.289062 C 209.296875 144.734375 208.988281 146.25 209.421875 147.691406 C 209.472656 147.859375 209.691406 147.871094 209.8125 147.785156 C 211.464844 146.605469 210.964844 144.039062 210.054688 142.546875 " fill-opacity="1" fill-rule="nonzero"/><path fill="#f39300" d="M 212.878906 225.476562 C 212.769531 225.277344 212.4375 225.238281 212.355469 225.492188 C 211.769531 227.265625 211.515625 229.113281 210.839844 230.863281 C 210.085938 232.824219 209.023438 234.476562 207.21875 235.628906 C 207.097656 235.707031 207.222656 235.910156 207.351562 235.847656 C 210.820312 234.128906 215.160156 229.667969 212.878906 225.476562 " fill-opacity="1" fill-rule="nonzero"/><path fill="#f4fe61" d="M 245.550781 177.308594 C 242.371094 177.992188 239.550781 179.289062 236.855469 181.089844 C 236.839844 181.101562 236.855469 181.128906 236.875 181.121094 C 239.589844 179.546875 242.589844 178.363281 245.597656 177.472656 C 245.691406 177.445312 245.644531 177.289062 245.550781 177.308594 " fill-opacity="1" fill-rule="nonzero"/><path fill="#f4fe61" d="M 243.003906 177.117188 C 241.460938 177.242188 240.113281 177.914062 238.855469 178.78125 C 238.777344 178.835938 238.859375 178.972656 238.941406 178.925781 C 240.246094 178.21875 241.667969 177.804688 243.078125 177.363281 C 243.222656 177.316406 243.140625 177.105469 243.003906 177.117188 " fill-opacity="1" fill-rule="nonzero"/><path fill="#f4fe61" d="M 144.234375 211.511719 C 142.203125 212.195312 140.210938 212.992188 138.214844 213.769531 C 138.097656 213.816406 138.175781 213.992188 138.296875 213.949219 C 140.3125 213.230469 142.34375 212.535156 144.324219 211.726562 C 144.464844 211.667969 144.371094 211.464844 144.234375 211.511719 " fill-opacity="1" fill-rule="nonzero"/><path fill="#f4fe61" d="M 143.929688 210.441406 C 143.050781 210.742188 142.203125 211.257812 141.371094 211.664062 C 141.242188 211.726562 141.332031 211.929688 141.457031 211.867188 C 142.308594 211.46875 143.246094 211.121094 144.039062 210.617188 C 144.144531 210.550781 144.035156 210.40625 143.929688 210.441406 " fill-opacity="1" fill-rule="nonzero"/><path fill="#f4fe61" d="M 143.671875 205.839844 C 143.175781 206.578125 142.59375 207.269531 141.84375 207.761719 C 141.75 207.820312 141.847656 207.972656 141.945312 207.925781 C 142.832031 207.503906 143.558594 206.898438 144.007812 206.015625 C 144.105469 205.824219 143.792969 205.660156 143.671875 205.839844 " fill-opacity="1" fill-rule="nonzero"/><path fill="#f4fe61" d="M 168.25 230.96875 C 167.871094 233.257812 167.496094 235.550781 167.027344 237.824219 C 166.558594 240.097656 165.917969 242.332031 165.433594 244.601562 C 165.410156 244.703125 165.578125 244.746094 165.609375 244.644531 C 166.964844 240.242188 167.78125 235.542969 168.433594 230.988281 C 168.453125 230.867188 168.269531 230.851562 168.25 230.96875 " fill-opacity="1" fill-rule="nonzero"/><path fill="#f4fe61" d="M 167.851562 237.933594 C 167.261719 240.597656 166.78125 243.25 166.03125 245.882812 C 166 245.988281 166.152344 246.050781 166.191406 245.945312 C 167.152344 243.441406 167.96875 240.652344 168.171875 237.96875 C 168.1875 237.757812 167.894531 237.738281 167.851562 237.933594 " fill-opacity="1" fill-rule="nonzero"/><path fill="#f4fe61" d="M 176.226562 232.480469 C 174.960938 233.855469 174.050781 235.601562 172.90625 237.085938 C 172.792969 237.234375 173.015625 237.386719 173.136719 237.25 C 174.359375 235.875 175.820312 234.367188 176.539062 232.648438 C 176.621094 232.445312 176.355469 232.34375 176.226562 232.480469 " fill-opacity="1" fill-rule="nonzero"/><path fill="#f4fe61" d="M 226.332031 229.179688 C 225.355469 227.210938 224.78125 225.308594 224.300781 223.171875 C 224.21875 222.804688 223.65625 222.882812 223.71875 223.257812 C 224.046875 225.371094 224.984375 227.515625 226.15625 229.289062 C 226.222656 229.386719 226.386719 229.285156 226.332031 229.179688 " fill-opacity="1" fill-rule="nonzero"/><path fill="#f4fe61" d="M 223.914062 226.820312 C 223.453125 225.863281 222.917969 224.65625 223.039062 223.570312 C 223.082031 223.1875 222.433594 223.285156 222.589844 223.640625 C 222.824219 224.160156 222.925781 224.738281 223.117188 225.273438 C 223.3125 225.820312 223.554688 226.34375 223.835938 226.855469 C 223.863281 226.902344 223.941406 226.871094 223.914062 226.820312 " fill-opacity="1" fill-rule="nonzero"/><path fill="#f4fe61" d="M 222.375 227.4375 C 222.199219 226.9375 221.832031 226.46875 221.558594 226.019531 C 221.476562 225.882812 221.246094 225.972656 221.324219 226.125 C 221.566406 226.609375 221.773438 227.167969 222.117188 227.59375 C 222.226562 227.738281 222.429688 227.597656 222.375 227.4375 " fill-opacity="1" fill-rule="nonzero"/><path fill="#f4fe61" d="M 174.679688 129.183594 C 174.628906 129.070312 174.449219 129.148438 174.5 129.265625 C 175.828125 132.355469 177.125 135.464844 178.367188 138.589844 C 178.382812 138.628906 178.4375 138.601562 178.421875 138.566406 C 177.300781 135.382812 176.0625 132.265625 174.679688 129.183594 " fill-opacity="1" fill-rule="nonzero"/><path fill="#f4fe61" d="M 177.679688 139.492188 C 177.152344 137.96875 176.503906 136.5 175.859375 135.023438 C 175.808594 134.90625 175.636719 134.984375 175.679688 135.101562 C 176.242188 136.613281 176.796875 138.117188 177.476562 139.582031 C 177.539062 139.714844 177.726562 139.628906 177.679688 139.492188 " fill-opacity="1" fill-rule="nonzero"/><path fill="#f4dd1a" d="M 220.625 136.011719 C 219.617188 137.046875 218.550781 138.089844 217.375 138.9375 C 216.796875 139.355469 216.210938 139.765625 215.640625 140.199219 C 215.34375 140.421875 215.046875 140.652344 214.753906 140.886719 C 214.632812 140.988281 214.480469 141.082031 214.382812 141.207031 C 214.269531 141.363281 214.175781 141.535156 214.054688 141.6875 C 213.976562 141.777344 214.09375 141.894531 214.191406 141.855469 C 214.363281 141.789062 214.550781 141.757812 214.726562 141.691406 C 214.890625 141.628906 215.035156 141.507812 215.175781 141.40625 C 215.480469 141.191406 215.777344 140.960938 216.066406 140.722656 C 216.613281 140.261719 217.125 139.75 217.613281 139.230469 C 218.621094 138.160156 219.675781 137.136719 220.660156 136.042969 C 220.675781 136.023438 220.644531 135.992188 220.625 136.011719 " fill-opacity="1" fill-rule="nonzero"/><path fill="#f4dd1a" d="M 217.566406 140.269531 C 217.269531 140.648438 216.957031 141.035156 216.582031 141.339844 C 216.40625 141.488281 216.21875 141.640625 216.03125 141.769531 C 215.828125 141.910156 215.59375 142.019531 215.417969 142.191406 C 215.3125 142.285156 215.285156 142.441406 215.378906 142.554688 C 215.472656 142.675781 215.625 142.671875 215.742188 142.59375 C 215.847656 142.527344 215.929688 142.433594 216.015625 142.34375 C 216.105469 142.25 216.1875 142.160156 216.261719 142.058594 C 216.335938 141.957031 216.441406 141.878906 216.515625 141.78125 C 216.589844 141.683594 216.667969 141.589844 216.746094 141.492188 C 217.046875 141.105469 217.371094 140.734375 217.65625 140.332031 C 217.699219 140.277344 217.613281 140.214844 217.566406 140.269531 " fill-opacity="1" fill-rule="nonzero"/><path fill="#f4dd1a" d="M 191.152344 240.25 C 191.085938 240.058594 190.804688 240.050781 190.695312 240.203125 C 190.492188 240.488281 190.464844 240.964844 190.40625 241.308594 C 190.335938 241.710938 190.289062 242.113281 190.230469 242.515625 C 190.125 243.3125 190.113281 244.101562 190.046875 244.898438 C 189.914062 246.503906 189.722656 248.09375 189.484375 249.6875 C 189.480469 249.722656 189.53125 249.726562 189.539062 249.695312 C 189.808594 248.101562 190.09375 246.515625 190.445312 244.9375 C 190.621094 244.152344 190.835938 243.390625 190.957031 242.59375 C 191.019531 242.191406 191.089844 241.789062 191.132812 241.382812 C 191.171875 241.03125 191.269531 240.589844 191.152344 240.25 " fill-opacity="1" fill-rule="nonzero"/><path fill="#f4dd1a" d="M 190.339844 238.21875 C 190.277344 238.109375 190.144531 238.089844 190.058594 238.191406 C 189.839844 238.449219 189.824219 238.8125 189.824219 239.140625 C 189.820312 239.507812 189.863281 239.875 189.851562 240.242188 C 189.832031 240.960938 189.8125 241.679688 189.757812 242.394531 C 189.75 242.453125 189.84375 242.464844 189.851562 242.402344 C 189.933594 241.691406 190.046875 240.984375 190.160156 240.277344 C 190.210938 239.925781 190.316406 239.585938 190.386719 239.242188 C 190.453125 238.90625 190.515625 238.527344 190.339844 238.21875 " fill-opacity="1" fill-rule="nonzero"/><path fill="#f4dd1a" d="M 143.710938 177.351562 C 142.792969 177.699219 141.882812 178.070312 140.953125 178.398438 C 140.046875 178.714844 139.105469 178.988281 138.230469 179.382812 C 137.335938 179.789062 136.386719 180.039062 135.429688 180.257812 C 134.472656 180.472656 133.503906 180.65625 132.53125 180.789062 C 132.445312 180.800781 132.464844 180.925781 132.550781 180.917969 C 133.566406 180.84375 134.574219 180.726562 135.578125 180.546875 C 136.539062 180.371094 137.496094 180.15625 138.460938 179.984375 C 139.410156 179.816406 140.351562 179.425781 141.226562 179.015625 C 142.128906 178.59375 143.015625 178.125 143.835938 177.558594 C 143.953125 177.476562 143.835938 177.304688 143.710938 177.351562 " fill-opacity="1" fill-rule="nonzero"/><path fill="#f4dd1a" d="M 140.789062 180.4375 C 140.109375 180.511719 139.496094 180.882812 138.832031 181.015625 C 138.171875 181.148438 137.496094 181.253906 136.820312 181.292969 C 136.757812 181.296875 136.761719 181.402344 136.824219 181.402344 C 137.523438 181.417969 138.21875 181.394531 138.910156 181.28125 C 139.597656 181.167969 140.332031 181.167969 140.941406 180.78125 C 141.113281 180.671875 140.960938 180.417969 140.789062 180.4375 " fill-opacity="1" fill-rule="nonzero"/><path fill="#f4dd1a" d="M 150.148438 152.324219 C 150.007812 152.164062 149.855469 152.015625 149.699219 151.871094 C 149.402344 151.597656 149.09375 151.339844 148.789062 151.074219 C 148.15625 150.535156 147.570312 149.945312 146.980469 149.359375 C 146.941406 149.320312 146.875 149.371094 146.914062 149.414062 C 147.453125 150.042969 148.003906 150.667969 148.496094 151.335938 C 148.738281 151.664062 148.980469 151.996094 149.234375 152.316406 C 149.359375 152.476562 149.496094 152.632812 149.644531 152.773438 C 149.792969 152.921875 149.964844 153.097656 150.195312 153.058594 C 150.304688 153.039062 150.363281 152.960938 150.386719 152.859375 C 150.433594 152.660156 150.269531 152.464844 150.148438 152.324219 " fill-opacity="1" fill-rule="nonzero"/><path fill="#f4dd1a" d="M 151.40625 152.464844 C 151.398438 152.445312 151.386719 152.425781 151.378906 152.40625 C 151.375 152.363281 151.363281 152.320312 151.332031 152.289062 C 151.113281 152.046875 150.875 151.828125 150.628906 151.613281 C 150.511719 151.515625 150.382812 151.429688 150.265625 151.328125 C 150.140625 151.222656 150.023438 151.121094 149.898438 151.015625 C 149.816406 150.941406 149.691406 151.074219 149.765625 151.160156 C 149.867188 151.277344 149.96875 151.394531 150.070312 151.511719 C 150.175781 151.632812 150.265625 151.769531 150.371094 151.890625 C 150.582031 152.136719 150.808594 152.371094 151.050781 152.589844 C 151.078125 152.617188 151.117188 152.628906 151.160156 152.628906 L 151.21875 152.660156 C 151.332031 152.71875 151.460938 152.570312 151.40625 152.464844 " fill-opacity="1" fill-rule="nonzero"/></svg>