<svg xmlns="http://www.w3.org/2000/svg" xmlns:xlink="http://www.w3.org/1999/xlink" width="500" zoomAndPan="magnify" viewBox="0 0 375 374.999991" height="500" preserveAspectRatio="xMidYMid meet" version="1.0"><defs><clipPath id="55e1a905c0"><path d="M 93.75 44.25 L 276.75 44.25 L 276.75 256 L 93.75 256 Z M 93.75 44.25 " clip-rule="nonzero"/></clipPath><clipPath id="a552b99b3c"><path d="M 150 304 L 220 304 L 220 337.5 L 150 337.5 Z M 150 304 " clip-rule="nonzero"/></clipPath></defs><g clip-path="url(#55e1a905c0)"><path fill="#f8cf40" d="M 231.714844 255.28125 L 138.726562 255.28125 C 136.199219 255.28125 134.152344 253.230469 134.152344 250.699219 C 134.152344 213.917969 124.324219 202.65625 113.921875 190.734375 C 104.054688 179.429688 93.859375 167.746094 93.859375 135.777344 C 93.859375 85.324219 134.84375 44.277344 185.222656 44.277344 C 235.601562 44.277344 276.582031 85.324219 276.582031 135.777344 C 276.582031 167.746094 266.386719 179.433594 256.523438 190.738281 C 246.117188 202.65625 236.292969 213.917969 236.292969 250.699219 C 236.292969 253.230469 234.242188 255.28125 231.714844 255.28125 Z M 231.714844 255.28125 " fill-opacity="1" fill-rule="evenodd"/></g><path fill="#bc9c22" d="M 221.914062 299.03125 L 148.527344 299.03125 C 138.617188 299.03125 130.554688 290.957031 130.554688 281.035156 C 130.554688 271.109375 138.617188 263.035156 148.527344 263.035156 L 221.917969 263.035156 C 231.828125 263.035156 239.890625 271.109375 239.890625 281.035156 C 239.886719 290.957031 231.828125 299.03125 221.914062 299.03125 Z M 221.914062 299.03125 " fill-opacity="1" fill-rule="evenodd"/><g clip-path="url(#a552b99b3c)"><path fill="#bc9c22" d="M 185.222656 337.53125 C 166.777344 337.53125 151.664062 322.992188 150.699219 304.761719 L 219.742188 304.761719 C 218.78125 322.996094 203.664062 337.53125 185.222656 337.53125 Z M 185.222656 337.53125 " fill-opacity="1" fill-rule="evenodd"/></g></svg>