<svg xmlns="http://www.w3.org/2000/svg" xmlns:xlink="http://www.w3.org/1999/xlink" width="500" zoomAndPan="magnify" viewBox="0 0 375 374.999991" height="500" preserveAspectRatio="xMidYMid meet" version="1.0"><defs><clipPath id="5132b558e6"><path d="M 224.066406 51.136719 L 331.472656 51.136719 L 331.472656 184.910156 L 224.066406 184.910156 Z M 224.066406 51.136719 " clip-rule="nonzero"/></clipPath><clipPath id="8cb967a07c"><path d="M 37.5 51 L 145 51 L 145 185 L 37.5 185 Z M 37.5 51 " clip-rule="nonzero"/></clipPath><clipPath id="2b7ae2e1c2"><path d="M 171 291.5 L 198 291.5 L 198 318.59375 L 171 318.59375 Z M 171 291.5 " clip-rule="nonzero"/></clipPath></defs><path fill="#ffffff" d="M 171.125 104.625 L 144.398438 77.882812 L 90.949219 77.882812 L 64.222656 104.625 L 64.222656 184.863281 L 117.671875 238.355469 L 251.296875 238.355469 L 304.746094 184.863281 L 304.746094 77.882812 L 224.574219 77.882812 L 197.847656 104.625 L 171.125 104.625 " fill-opacity="1" fill-rule="nonzero"/><path fill="#000000" d="M 197.847656 131.371094 L 197.847656 104.625 L 171.125 104.625 L 171.125 131.371094 L 197.847656 131.371094 " fill-opacity="1" fill-rule="nonzero"/><path fill="#000000" d="M 224.574219 77.882812 L 197.847656 77.882812 L 197.847656 104.625 L 224.574219 104.625 L 224.574219 77.882812 " fill-opacity="1" fill-rule="nonzero"/><path fill="#000000" d="M 171.125 104.625 L 171.125 77.882812 L 144.398438 77.882812 L 144.398438 104.625 L 171.125 104.625 " fill-opacity="1" fill-rule="nonzero"/><g clip-path="url(#5132b558e6)"><path fill="#000000" d="M 304.746094 77.882812 L 304.746094 51.136719 L 224.574219 51.136719 L 224.574219 77.882812 L 304.746094 77.882812 L 304.746094 184.863281 L 331.46875 184.863281 L 331.46875 77.882812 L 304.746094 77.882812 " fill-opacity="1" fill-rule="nonzero"/></g><g clip-path="url(#8cb967a07c)"><path fill="#000000" d="M 64.222656 131.371094 L 64.222656 104.625 L 90.949219 104.625 L 90.949219 77.882812 L 144.398438 77.882812 L 144.398438 51.136719 L 64.222656 51.136719 L 64.222656 77.882812 L 37.5 77.882812 L 37.5 184.863281 L 64.222656 184.863281 L 64.222656 131.371094 " fill-opacity="1" fill-rule="nonzero"/></g><path fill="#000000" d="M 278.019531 211.609375 L 304.746094 211.609375 L 304.746094 184.863281 L 278.019531 184.863281 L 278.019531 211.609375 " fill-opacity="1" fill-rule="nonzero"/><path fill="#000000" d="M 64.222656 184.863281 L 64.222656 211.609375 L 90.949219 211.609375 L 90.949219 184.863281 L 64.222656 184.863281 " fill-opacity="1" fill-rule="nonzero"/><path fill="#000000" d="M 90.949219 211.609375 L 90.949219 238.355469 L 117.671875 238.355469 L 117.671875 211.609375 L 90.949219 211.609375 " fill-opacity="1" fill-rule="nonzero"/><path fill="#000000" d="M 117.671875 238.355469 L 117.671875 265.101562 L 144.398438 265.101562 L 144.398438 238.355469 L 117.671875 238.355469 " fill-opacity="1" fill-rule="nonzero"/><path fill="#000000" d="M 144.398438 265.101562 L 144.398438 291.847656 L 171.125 291.847656 L 171.125 265.101562 L 144.398438 265.101562 " fill-opacity="1" fill-rule="nonzero"/><path fill="#000000" d="M 251.296875 238.355469 L 278.019531 238.355469 L 278.019531 211.609375 L 251.296875 211.609375 L 251.296875 238.355469 " fill-opacity="1" fill-rule="nonzero"/><path fill="#000000" d="M 224.574219 265.101562 L 251.296875 265.101562 L 251.296875 238.355469 L 224.574219 238.355469 L 224.574219 265.101562 " fill-opacity="1" fill-rule="nonzero"/><path fill="#000000" d="M 197.847656 291.847656 L 224.574219 291.847656 L 224.574219 265.101562 L 197.847656 265.101562 L 197.847656 291.847656 " fill-opacity="1" fill-rule="nonzero"/><g clip-path="url(#2b7ae2e1c2)"><path fill="#000000" d="M 171.125 318.59375 L 197.847656 318.59375 L 197.847656 291.847656 L 171.125 291.847656 L 171.125 318.59375 " fill-opacity="1" fill-rule="nonzero"/></g><path fill="#ff0000" d="M 278.019531 104.625 L 278.019531 131.371094 L 304.746094 131.371094 L 304.746094 104.625 L 278.019531 104.625 " fill-opacity="1" fill-rule="nonzero"/><path fill="#ff0000" d="M 117.671875 104.625 L 117.671875 131.371094 L 144.398438 131.371094 L 144.398438 104.625 L 117.671875 104.625 " fill-opacity="1" fill-rule="nonzero"/><path fill="#ff0000" d="M 117.671875 131.371094 L 117.671875 158.117188 L 144.398438 158.117188 L 144.398438 131.371094 L 117.671875 131.371094 " fill-opacity="1" fill-rule="nonzero"/><path fill="#ff0000" d="M 117.671875 158.117188 L 117.671875 184.863281 L 144.398438 184.863281 L 144.398438 158.117188 L 117.671875 158.117188 " fill-opacity="1" fill-rule="nonzero"/><path fill="#ff0000" d="M 117.671875 184.863281 L 117.671875 211.609375 L 144.398438 211.609375 L 144.398438 184.863281 L 117.671875 184.863281 " fill-opacity="1" fill-rule="nonzero"/><path fill="#ff0000" d="M 90.949219 104.625 L 90.949219 131.371094 L 117.671875 131.371094 L 117.671875 104.625 L 90.949219 104.625 " fill-opacity="1" fill-rule="nonzero"/><path fill="#ff0000" d="M 90.949219 131.371094 L 90.949219 158.117188 L 117.671875 158.117188 L 117.671875 131.371094 L 90.949219 131.371094 " fill-opacity="1" fill-rule="nonzero"/><path fill="#ff0000" d="M 90.949219 158.117188 L 90.949219 184.863281 L 117.671875 184.863281 L 117.671875 158.117188 L 90.949219 158.117188 " fill-opacity="1" fill-rule="nonzero"/><path fill="#ff0000" d="M 64.222656 104.625 L 64.222656 131.371094 L 90.949219 131.371094 L 90.949219 104.625 L 64.222656 104.625 " fill-opacity="1" fill-rule="nonzero"/><path fill="#ff0000" d="M 64.222656 131.371094 L 64.222656 158.117188 L 90.949219 158.117188 L 90.949219 131.371094 L 64.222656 131.371094 " fill-opacity="1" fill-rule="nonzero"/><path fill="#ff0000" d="M 64.222656 158.117188 L 64.222656 184.863281 L 90.949219 184.863281 L 90.949219 158.117188 L 64.222656 158.117188 " fill-opacity="1" fill-rule="nonzero"/><path fill="#ff0000" d="M 90.949219 184.863281 L 90.949219 211.609375 L 117.671875 211.609375 L 117.671875 184.863281 L 90.949219 184.863281 " fill-opacity="1" fill-rule="nonzero"/><path fill="#ff0000" d="M 117.671875 211.609375 L 117.671875 238.355469 L 144.398438 238.355469 L 144.398438 211.609375 L 117.671875 211.609375 " fill-opacity="1" fill-rule="nonzero"/><path fill="#ff0000" d="M 144.398438 104.625 L 144.398438 131.371094 L 171.125 131.371094 L 171.125 104.625 L 144.398438 104.625 " fill-opacity="1" fill-rule="nonzero"/><path fill="#ff0000" d="M 144.398438 131.371094 L 144.398438 158.117188 L 171.125 158.117188 L 171.125 131.371094 L 144.398438 131.371094 " fill-opacity="1" fill-rule="nonzero"/><path fill="#ff0000" d="M 144.398438 158.117188 L 144.398438 184.863281 L 171.125 184.863281 L 171.125 158.117188 L 144.398438 158.117188 " fill-opacity="1" fill-rule="nonzero"/><path fill="#ff0000" d="M 144.398438 184.863281 L 144.398438 211.609375 L 171.125 211.609375 L 171.125 184.863281 L 144.398438 184.863281 " fill-opacity="1" fill-rule="nonzero"/><path fill="#ff0000" d="M 144.398438 211.609375 L 144.398438 238.355469 L 171.125 238.355469 L 171.125 211.609375 L 144.398438 211.609375 " fill-opacity="1" fill-rule="nonzero"/><path fill="#ff0000" d="M 144.398438 238.355469 L 144.398438 265.101562 L 171.125 265.101562 L 171.125 238.355469 L 144.398438 238.355469 " fill-opacity="1" fill-rule="nonzero"/><path fill="#ff0000" d="M 171.125 131.371094 L 171.125 158.117188 L 197.847656 158.117188 L 197.847656 131.371094 L 171.125 131.371094 " fill-opacity="1" fill-rule="nonzero"/><path fill="#ff0000" d="M 171.125 158.117188 L 171.125 184.863281 L 197.847656 184.863281 L 197.847656 158.117188 L 171.125 158.117188 " fill-opacity="1" fill-rule="nonzero"/><path fill="#ff0000" d="M 171.125 184.863281 L 171.125 211.609375 L 197.847656 211.609375 L 197.847656 184.863281 L 171.125 184.863281 " fill-opacity="1" fill-rule="nonzero"/><path fill="#ff0000" d="M 171.125 211.609375 L 171.125 238.355469 L 197.847656 238.355469 L 197.847656 211.609375 L 171.125 211.609375 " fill-opacity="1" fill-rule="nonzero"/><path fill="#ff0000" d="M 171.125 238.355469 L 171.125 265.101562 L 197.847656 265.101562 L 197.847656 238.355469 L 171.125 238.355469 " fill-opacity="1" fill-rule="nonzero"/><path fill="#ff0000" d="M 197.847656 131.371094 L 197.847656 158.117188 L 224.574219 158.117188 L 224.574219 131.371094 L 197.847656 131.371094 " fill-opacity="1" fill-rule="nonzero"/><path fill="#ff0000" d="M 197.847656 104.625 L 197.847656 131.371094 L 224.574219 131.371094 L 224.574219 104.625 L 197.847656 104.625 " fill-opacity="1" fill-rule="nonzero"/><path fill="#ff0000" d="M 197.847656 158.117188 L 197.847656 184.863281 L 224.574219 184.863281 L 224.574219 158.117188 L 197.847656 158.117188 " fill-opacity="1" fill-rule="nonzero"/><path fill="#ff0000" d="M 197.847656 184.863281 L 197.847656 211.609375 L 224.574219 211.609375 L 224.574219 184.863281 L 197.847656 184.863281 " fill-opacity="1" fill-rule="nonzero"/><path fill="#ff0000" d="M 197.847656 211.609375 L 197.847656 238.355469 L 224.574219 238.355469 L 224.574219 211.609375 L 197.847656 211.609375 " fill-opacity="1" fill-rule="nonzero"/><path fill="#ff0000" d="M 197.847656 238.355469 L 197.847656 265.101562 L 224.574219 265.101562 L 224.574219 238.355469 L 197.847656 238.355469 " fill-opacity="1" fill-rule="nonzero"/><path fill="#ff0000" d="M 224.574219 104.625 L 224.574219 131.371094 L 251.296875 131.371094 L 251.296875 104.625 L 224.574219 104.625 " fill-opacity="1" fill-rule="nonzero"/><path fill="#ff0000" d="M 224.574219 131.371094 L 224.574219 158.117188 L 251.296875 158.117188 L 251.296875 131.371094 L 224.574219 131.371094 " fill-opacity="1" fill-rule="nonzero"/><path fill="#ff0000" d="M 224.574219 158.117188 L 224.574219 184.863281 L 251.296875 184.863281 L 251.296875 158.117188 L 224.574219 158.117188 " fill-opacity="1" fill-rule="nonzero"/><path fill="#ff0000" d="M 224.574219 184.863281 L 224.574219 211.609375 L 251.296875 211.609375 L 251.296875 184.863281 L 224.574219 184.863281 " fill-opacity="1" fill-rule="nonzero"/><path fill="#ff0000" d="M 251.296875 104.625 L 251.296875 131.371094 L 278.019531 131.371094 L 278.019531 104.625 L 251.296875 104.625 " fill-opacity="1" fill-rule="nonzero"/><path fill="#ff0000" d="M 251.296875 131.371094 L 251.296875 158.117188 L 278.019531 158.117188 L 278.019531 131.371094 L 251.296875 131.371094 " fill-opacity="1" fill-rule="nonzero"/><path fill="#ff0000" d="M 251.296875 158.117188 L 251.296875 184.863281 L 278.019531 184.863281 L 278.019531 158.117188 L 251.296875 158.117188 " fill-opacity="1" fill-rule="nonzero"/><path fill="#ff0000" d="M 278.019531 131.371094 L 278.019531 158.117188 L 304.746094 158.117188 L 304.746094 131.371094 L 278.019531 131.371094 " fill-opacity="1" fill-rule="nonzero"/><path fill="#ff0000" d="M 278.019531 158.117188 L 278.019531 184.863281 L 304.746094 184.863281 L 304.746094 158.117188 L 278.019531 158.117188 " fill-opacity="1" fill-rule="nonzero"/><path fill="#ff0000" d="M 251.296875 184.863281 L 251.296875 211.609375 L 278.019531 211.609375 L 278.019531 184.863281 L 251.296875 184.863281 " fill-opacity="1" fill-rule="nonzero"/><path fill="#ff0000" d="M 224.574219 211.609375 L 224.574219 238.355469 L 251.296875 238.355469 L 251.296875 211.609375 L 224.574219 211.609375 " fill-opacity="1" fill-rule="nonzero"/><path fill="#ff0000" d="M 171.125 265.101562 L 171.125 291.847656 L 197.847656 291.847656 L 197.847656 265.101562 L 171.125 265.101562 " fill-opacity="1" fill-rule="nonzero"/><path fill="#ffffff" d="M 278.019531 104.625 L 278.019531 131.371094 L 304.746094 131.371094 L 304.746094 104.625 L 278.019531 104.625 " fill-opacity="1" fill-rule="nonzero"/></svg>