<svg xmlns="http://www.w3.org/2000/svg" xmlns:xlink="http://www.w3.org/1999/xlink" width="500" zoomAndPan="magnify" viewBox="0 0 375 374.999991" height="500" preserveAspectRatio="xMidYMid meet" version="1.0"><defs><clipPath id="73fc7836c5"><path d="M 23.378906 69.632812 L 82 69.632812 L 82 305.507812 L 23.378906 305.507812 Z M 23.378906 69.632812 " clip-rule="nonzero"/></clipPath><clipPath id="5c5f64f80c"><path d="M 294 69.632812 L 352.628906 69.632812 L 352.628906 305.507812 L 294 305.507812 Z M 294 69.632812 " clip-rule="nonzero"/></clipPath></defs><g clip-path="url(#73fc7836c5)"><path fill="#f00000" d="M 34.71875 187.527344 C 34.601562 146.914062 50.796875 107.9375 79.617188 79.296875 C 81.808594 77.046875 81.75 73.457031 79.527344 71.269531 C 77.308594 69.105469 73.800781 69.105469 71.605469 71.269531 C 7.300781 135.46875 7.300781 239.585938 71.578125 303.816406 C 71.578125 303.816406 71.578125 303.816406 71.605469 303.816406 C 73.769531 306.0625 77.367188 306.09375 79.617188 303.902344 C 81.867188 301.714844 81.925781 298.121094 79.734375 295.902344 C 79.675781 295.875 79.644531 295.816406 79.617188 295.785156 C 50.796875 267.144531 34.601562 228.167969 34.71875 187.527344 " fill-opacity="1" fill-rule="nonzero"/></g><g clip-path="url(#5c5f64f80c)"><path fill="#f00000" d="M 304.398438 71.269531 C 302.148438 69.078125 298.550781 69.136719 296.386719 71.355469 C 294.226562 73.574219 294.226562 77.078125 296.386719 79.296875 C 356.222656 139.0625 356.222656 235.992188 296.386719 295.785156 C 294.136719 297.976562 294.078125 301.566406 296.269531 303.816406 C 298.464844 306.0625 302.058594 306.09375 304.308594 303.902344 C 304.339844 303.875 304.367188 303.84375 304.398438 303.816406 C 368.703125 239.613281 368.703125 135.5 304.398438 71.269531 " fill-opacity="1" fill-rule="nonzero"/></g><path fill="#f00000" d="M 68.800781 187.527344 C 68.714844 155.9375 81.28125 125.632812 103.703125 103.355469 C 105.894531 101.105469 105.835938 97.515625 103.613281 95.324219 C 101.394531 93.164062 97.886719 93.164062 95.691406 95.324219 C 44.6875 146.242188 44.6875 228.8125 95.664062 279.757812 C 95.664062 279.757812 95.664062 279.757812 95.691406 279.757812 C 97.855469 282.007812 101.453125 282.035156 103.703125 279.847656 C 105.953125 277.65625 105.980469 274.09375 103.789062 271.847656 C 103.761719 271.816406 103.730469 271.757812 103.703125 271.730469 C 81.28125 249.453125 68.714844 219.148438 68.800781 187.527344 " fill-opacity="1" fill-rule="nonzero"/><path fill="#f00000" d="M 280.3125 95.324219 C 278.0625 93.136719 274.464844 93.195312 272.300781 95.414062 C 270.140625 97.632812 270.140625 101.136719 272.300781 103.355469 C 318.835938 149.835938 318.835938 225.21875 272.300781 271.730469 C 270.050781 273.917969 269.992188 277.511719 272.1875 279.757812 C 274.378906 282.007812 277.972656 282.035156 280.222656 279.847656 C 280.253906 279.816406 280.28125 279.789062 280.3125 279.757812 C 331.320312 228.839844 331.320312 146.242188 280.3125 95.324219 " fill-opacity="1" fill-rule="nonzero"/><path fill="#f00000" d="M 102.855469 187.527344 C 102.796875 164.957031 111.769531 143.324219 127.789062 127.382812 C 129.949219 125.105469 129.835938 121.542969 127.554688 119.382812 C 125.363281 117.308594 121.941406 117.308594 119.777344 119.382812 C 82.070312 157.015625 82.070312 218.039062 119.75 255.699219 C 119.75 255.699219 119.75 255.699219 119.777344 255.699219 C 121.941406 257.949219 125.539062 257.976562 127.789062 255.789062 C 130.039062 253.628906 130.097656 250.035156 127.90625 247.789062 C 127.875 247.757812 127.816406 247.730469 127.789062 247.671875 C 111.769531 231.757812 102.796875 210.125 102.855469 187.527344 " fill-opacity="1" fill-rule="nonzero"/><path fill="#f00000" d="M 256.226562 119.382812 C 253.976562 117.195312 250.410156 117.253906 248.21875 119.472656 C 246.054688 121.691406 246.054688 125.191406 248.21875 127.414062 C 281.453125 160.609375 281.453125 214.476562 248.21875 247.671875 C 245.964844 249.859375 245.90625 253.453125 248.101562 255.699219 C 250.292969 257.949219 253.886719 257.976562 256.136719 255.789062 C 256.167969 255.757812 256.195312 255.730469 256.226562 255.699219 C 293.933594 218.066406 293.933594 157.046875 256.253906 119.382812 C 256.226562 119.382812 256.226562 119.382812 256.226562 119.382812 " fill-opacity="1" fill-rule="nonzero"/><path fill="#f00000" d="M 151.875 143.441406 C 149.652344 141.222656 146.058594 141.222656 143.835938 143.441406 C 119.488281 167.820312 119.488281 207.265625 143.835938 231.644531 C 146.085938 233.832031 149.679688 233.746094 151.875 231.496094 C 154.007812 229.308594 154.007812 225.832031 151.875 223.613281 C 131.96875 203.671875 131.96875 171.382812 151.875 151.441406 C 154.09375 149.25 154.09375 145.660156 151.875 143.441406 " fill-opacity="1" fill-rule="nonzero"/><path fill="#f00000" d="M 232.140625 143.441406 C 229.890625 141.25 226.292969 141.308594 224.132812 143.585938 C 221.996094 145.777344 221.996094 149.25 224.132812 151.441406 C 244.035156 171.382812 244.035156 203.671875 224.132812 223.613281 C 221.878906 225.804688 221.820312 229.394531 223.984375 231.644531 C 226.175781 233.890625 229.773438 233.949219 232.023438 231.789062 C 232.050781 231.730469 232.109375 231.699219 232.140625 231.644531 C 256.488281 207.265625 256.488281 167.820312 232.140625 143.441406 " fill-opacity="1" fill-rule="nonzero"/><path fill="#f00000" d="M 188.003906 170.535156 C 197.414062 170.535156 205.015625 178.15625 205.015625 187.527344 C 205.015625 196.929688 197.414062 204.546875 188.003906 204.546875 C 178.589844 204.546875 170.960938 196.929688 170.960938 187.527344 C 170.960938 178.15625 178.589844 170.535156 188.003906 170.535156 " fill-opacity="1" fill-rule="nonzero"/></svg>