<svg xmlns="http://www.w3.org/2000/svg" xmlns:xlink="http://www.w3.org/1999/xlink" width="500" zoomAndPan="magnify" viewBox="0 0 375 374.999991" height="500" preserveAspectRatio="xMidYMid meet" version="1.0"><defs><clipPath id="fda88d1671"><path d="M 74.910156 74.910156 L 300.660156 74.910156 L 300.660156 300.660156 L 74.910156 300.660156 Z M 74.910156 74.910156 " clip-rule="nonzero"/></clipPath></defs><g clip-path="url(#fda88d1671)"><path fill="#a6a6a6" d="M 136.480469 74.910156 L 74.910156 136.480469 L 136.480469 198.046875 L 136.480469 157.003906 L 208.308594 157.003906 C 236.886719 157.003906 259.617188 179.730469 259.617188 208.308594 C 259.617188 236.886719 236.886719 259.617188 208.308594 259.617188 L 177.523438 259.617188 C 176.847656 259.605469 176.171875 259.628906 175.492188 259.6875 C 174.816406 259.746094 174.148438 259.835938 173.480469 259.960938 C 172.8125 260.085938 172.152344 260.242188 171.503906 260.429688 C 170.851562 260.621094 170.210938 260.839844 169.582031 261.09375 C 168.953125 261.347656 168.335938 261.628906 167.734375 261.945312 C 167.132812 262.257812 166.550781 262.601562 165.984375 262.972656 C 165.414062 263.34375 164.867188 263.742188 164.339844 264.167969 C 163.8125 264.597656 163.308594 265.046875 162.824219 265.523438 C 162.339844 266 161.882812 266.5 161.449219 267.019531 C 161.015625 267.542969 160.609375 268.082031 160.230469 268.644531 C 159.851562 269.207031 159.5 269.785156 159.175781 270.382812 C 158.855469 270.980469 158.5625 271.589844 158.300781 272.21875 C 158.039062 272.84375 157.808594 273.480469 157.609375 274.128906 C 157.410156 274.777344 157.246094 275.433594 157.113281 276.097656 C 156.976562 276.765625 156.878906 277.433594 156.8125 278.109375 C 156.742188 278.785156 156.710938 279.460938 156.710938 280.140625 C 156.710938 280.816406 156.742188 281.492188 156.8125 282.167969 C 156.878906 282.84375 156.976562 283.511719 157.113281 284.179688 C 157.246094 284.84375 157.410156 285.5 157.609375 286.148438 C 157.808594 286.796875 158.039062 287.433594 158.300781 288.058594 C 158.5625 288.6875 158.855469 289.296875 159.175781 289.894531 C 159.5 290.492188 159.851562 291.070312 160.230469 291.632812 C 160.609375 292.195312 161.015625 292.734375 161.449219 293.257812 C 161.882812 293.777344 162.339844 294.277344 162.824219 294.753906 C 163.308594 295.230469 163.8125 295.683594 164.339844 296.109375 C 164.867188 296.535156 165.414062 296.933594 165.984375 297.304688 C 166.550781 297.675781 167.132812 298.019531 167.734375 298.332031 C 168.335938 298.648438 168.953125 298.929688 169.582031 299.183594 C 170.210938 299.4375 170.851562 299.65625 171.503906 299.847656 C 172.152344 300.035156 172.8125 300.191406 173.480469 300.316406 C 174.148438 300.441406 174.816406 300.53125 175.492188 300.589844 C 176.171875 300.648438 176.847656 300.671875 177.523438 300.660156 L 208.308594 300.660156 C 256.277344 300.660156 294.824219 263.125 299.058594 216.207031 C 300.121094 213.679688 300.652344 211.046875 300.660156 208.308594 C 300.660156 157.546875 259.070312 115.957031 208.308594 115.957031 L 136.480469 115.957031 Z M 136.480469 74.910156 " fill-opacity="1" fill-rule="nonzero"/></g></svg>